<mxfile host="app.diagrams.net" agent="Mozilla/5.0 (Windows NT 10.0; Win64; x64) AppleWebKit/537.36 (KHTML, like Gecko) Chrome/140.0.0.0 Safari/537.36" version="28.2.3">
  <diagram name="Page-1" id="y-BOeMATzjwb4VCk9Nun">
    <mxGraphModel dx="1042" dy="562" grid="1" gridSize="10" guides="1" tooltips="1" connect="1" arrows="1" fold="1" page="1" pageScale="1" pageWidth="850" pageHeight="1100" math="0" shadow="0">
      <root>
        <mxCell id="0" />
        <mxCell id="1" parent="0" />
        <mxCell id="GmiT60eIoy2U2VpT4NWJ-1" value="Python code dev" style="rounded=0;whiteSpace=wrap;html=1;" parent="1" vertex="1">
          <mxGeometry x="210" y="50" width="120" height="60" as="geometry" />
        </mxCell>
        <mxCell id="GmiT60eIoy2U2VpT4NWJ-2" value="website dev" style="rounded=1;whiteSpace=wrap;html=1;" parent="1" vertex="1">
          <mxGeometry x="210" y="160" width="120" height="60" as="geometry" />
        </mxCell>
        <mxCell id="GmiT60eIoy2U2VpT4NWJ-3" value="DB dev" style="rounded=1;whiteSpace=wrap;html=1;" parent="1" vertex="1">
          <mxGeometry x="210" y="270" width="120" height="60" as="geometry" />
        </mxCell>
        <mxCell id="GmiT60eIoy2U2VpT4NWJ-4" value="Koushlya" style="rounded=0;whiteSpace=wrap;html=1;" parent="1" vertex="1">
          <mxGeometry x="355" y="460" width="120" height="60" as="geometry" />
        </mxCell>
        <mxCell id="GmiT60eIoy2U2VpT4NWJ-5" value="Ram" style="rounded=0;whiteSpace=wrap;html=1;" parent="1" vertex="1">
          <mxGeometry x="160" y="790" width="120" height="60" as="geometry" />
        </mxCell>
        <mxCell id="GmiT60eIoy2U2VpT4NWJ-6" value="Laxman" style="rounded=0;whiteSpace=wrap;html=1;" parent="1" vertex="1">
          <mxGeometry x="360" y="790" width="120" height="60" as="geometry" />
        </mxCell>
        <mxCell id="GmiT60eIoy2U2VpT4NWJ-7" value="Bharat" style="rounded=0;whiteSpace=wrap;html=1;" parent="1" vertex="1">
          <mxGeometry x="560" y="790" width="120" height="60" as="geometry" />
        </mxCell>
        <mxCell id="GmiT60eIoy2U2VpT4NWJ-8" value="main" style="rounded=1;whiteSpace=wrap;html=1;" parent="1" vertex="1">
          <mxGeometry x="245" y="540" width="350" height="60" as="geometry" />
        </mxCell>
        <mxCell id="GmiT60eIoy2U2VpT4NWJ-9" value="R1" style="ellipse;whiteSpace=wrap;html=1;" parent="1" vertex="1">
          <mxGeometry x="160" y="690" width="120" height="80" as="geometry" />
        </mxCell>
        <mxCell id="GmiT60eIoy2U2VpT4NWJ-10" value="L1" style="ellipse;whiteSpace=wrap;html=1;aspect=fixed;" parent="1" vertex="1">
          <mxGeometry x="375" y="690" width="80" height="80" as="geometry" />
        </mxCell>
        <mxCell id="GmiT60eIoy2U2VpT4NWJ-11" value="B1" style="rhombus;whiteSpace=wrap;html=1;" parent="1" vertex="1">
          <mxGeometry x="570" y="690" width="80" height="80" as="geometry" />
        </mxCell>
        <mxCell id="GmiT60eIoy2U2VpT4NWJ-12" value="P1" style="shape=process;whiteSpace=wrap;html=1;backgroundOutline=1;" parent="1" vertex="1">
          <mxGeometry x="300" y="620" width="210" height="60" as="geometry" />
        </mxCell>
        <mxCell id="GmiT60eIoy2U2VpT4NWJ-13" value="Parushram" style="rounded=0;whiteSpace=wrap;html=1;" parent="1" vertex="1">
          <mxGeometry x="700" y="620" width="120" height="60" as="geometry" />
        </mxCell>
        <mxCell id="GmiT60eIoy2U2VpT4NWJ-14" value="preprod" style="rounded=1;whiteSpace=wrap;html=1;direction=south;" parent="1" vertex="1">
          <mxGeometry x="450" y="60" width="60" height="250" as="geometry" />
        </mxCell>
        <mxCell id="GmiT60eIoy2U2VpT4NWJ-15" value="main" style="rounded=1;whiteSpace=wrap;html=1;direction=south;" parent="1" vertex="1">
          <mxGeometry x="550" y="70" width="60" height="250" as="geometry" />
        </mxCell>
        <mxCell id="GmiT60eIoy2U2VpT4NWJ-16" value="Client" style="text;html=1;align=center;verticalAlign=middle;whiteSpace=wrap;rounded=0;" parent="1" vertex="1">
          <mxGeometry x="700" y="190" width="60" height="30" as="geometry" />
        </mxCell>
        <mxCell id="GmiT60eIoy2U2VpT4NWJ-17" value="QA" style="rounded=1;whiteSpace=wrap;html=1;direction=south;" parent="1" vertex="1">
          <mxGeometry x="350" y="70" width="60" height="240" as="geometry" />
        </mxCell>
        <mxCell id="GmiT60eIoy2U2VpT4NWJ-18" value="sand box" style="ellipse;whiteSpace=wrap;html=1;" parent="1" vertex="1">
          <mxGeometry x="80" y="50" width="120" height="80" as="geometry" />
        </mxCell>
        <mxCell id="GmiT60eIoy2U2VpT4NWJ-19" value="sand box" style="ellipse;whiteSpace=wrap;html=1;" parent="1" vertex="1">
          <mxGeometry x="80" y="160" width="120" height="80" as="geometry" />
        </mxCell>
        <mxCell id="GmiT60eIoy2U2VpT4NWJ-20" value="sand box" style="ellipse;whiteSpace=wrap;html=1;" parent="1" vertex="1">
          <mxGeometry x="80" y="260" width="120" height="80" as="geometry" />
        </mxCell>
        <mxCell id="GmiT60eIoy2U2VpT4NWJ-21" value="GIT" style="text;html=1;align=center;verticalAlign=middle;whiteSpace=wrap;rounded=0;" parent="1" vertex="1">
          <mxGeometry x="190" y="1000" width="60" height="30" as="geometry" />
        </mxCell>
        <mxCell id="GmiT60eIoy2U2VpT4NWJ-22" value="" style="edgeStyle=orthogonalEdgeStyle;rounded=0;orthogonalLoop=1;jettySize=auto;html=1;" parent="1" source="GmiT60eIoy2U2VpT4NWJ-23" target="GmiT60eIoy2U2VpT4NWJ-24" edge="1">
          <mxGeometry relative="1" as="geometry" />
        </mxCell>
        <mxCell id="GmiT60eIoy2U2VpT4NWJ-23" value="Laptop/folder/code" style="rounded=0;whiteSpace=wrap;html=1;" parent="1" vertex="1">
          <mxGeometry x="210" y="1050" width="120" height="60" as="geometry" />
        </mxCell>
        <mxCell id="GmiT60eIoy2U2VpT4NWJ-24" value="Laptop/folder/code" style="rounded=0;whiteSpace=wrap;html=1;" parent="1" vertex="1">
          <mxGeometry x="510" y="1050" width="120" height="60" as="geometry" />
        </mxCell>
        <mxCell id="GmiT60eIoy2U2VpT4NWJ-25" value="git init" style="text;html=1;align=center;verticalAlign=middle;whiteSpace=wrap;rounded=0;" parent="1" vertex="1">
          <mxGeometry x="375" y="1090" width="60" height="30" as="geometry" />
        </mxCell>
        <mxCell id="GmiT60eIoy2U2VpT4NWJ-26" value=".git" style="text;html=1;align=center;verticalAlign=middle;whiteSpace=wrap;rounded=0;" parent="1" vertex="1">
          <mxGeometry x="535" y="1050" width="60" height="30" as="geometry" />
        </mxCell>
        <mxCell id="GmiT60eIoy2U2VpT4NWJ-27" value="" style="edgeStyle=orthogonalEdgeStyle;rounded=0;orthogonalLoop=1;jettySize=auto;html=1;" parent="1" source="GmiT60eIoy2U2VpT4NWJ-28" target="GmiT60eIoy2U2VpT4NWJ-30" edge="1">
          <mxGeometry relative="1" as="geometry" />
        </mxCell>
        <mxCell id="GmiT60eIoy2U2VpT4NWJ-28" value="" style="ellipse;whiteSpace=wrap;html=1;" parent="1" vertex="1">
          <mxGeometry x="220" y="1200" width="120" height="80" as="geometry" />
        </mxCell>
        <mxCell id="GmiT60eIoy2U2VpT4NWJ-29" value="" style="edgeStyle=orthogonalEdgeStyle;rounded=0;orthogonalLoop=1;jettySize=auto;html=1;" parent="1" source="GmiT60eIoy2U2VpT4NWJ-30" target="GmiT60eIoy2U2VpT4NWJ-31" edge="1">
          <mxGeometry relative="1" as="geometry" />
        </mxCell>
        <mxCell id="GmiT60eIoy2U2VpT4NWJ-30" value="Working Directory" style="whiteSpace=wrap;html=1;" parent="1" vertex="1">
          <mxGeometry x="420" y="1210" width="120" height="60" as="geometry" />
        </mxCell>
        <mxCell id="GmiT60eIoy2U2VpT4NWJ-31" value="" style="whiteSpace=wrap;html=1;" parent="1" vertex="1">
          <mxGeometry x="640" y="1210" width="120" height="60" as="geometry" />
        </mxCell>
        <mxCell id="GmiT60eIoy2U2VpT4NWJ-32" value="folder" style="shape=cylinder3;whiteSpace=wrap;html=1;boundedLbl=1;backgroundOutline=1;size=15;" parent="1" vertex="1">
          <mxGeometry x="100" y="1440" width="60" height="80" as="geometry" />
        </mxCell>
        <mxCell id="GmiT60eIoy2U2VpT4NWJ-33" value="Working Dir" style="shape=cylinder3;whiteSpace=wrap;html=1;boundedLbl=1;backgroundOutline=1;size=15;" parent="1" vertex="1">
          <mxGeometry x="260" y="1440" width="60" height="80" as="geometry" />
        </mxCell>
        <mxCell id="GmiT60eIoy2U2VpT4NWJ-34" value="local git repo" style="shape=cylinder3;whiteSpace=wrap;html=1;boundedLbl=1;backgroundOutline=1;size=15;" parent="1" vertex="1">
          <mxGeometry x="580" y="1440" width="60" height="80" as="geometry" />
        </mxCell>
        <mxCell id="GmiT60eIoy2U2VpT4NWJ-35" value="git remote/central repo" style="shape=cylinder3;whiteSpace=wrap;html=1;boundedLbl=1;backgroundOutline=1;size=15;" parent="1" vertex="1">
          <mxGeometry x="740" y="1400" width="90" height="160" as="geometry" />
        </mxCell>
        <mxCell id="GmiT60eIoy2U2VpT4NWJ-36" value="git init" style="text;html=1;align=center;verticalAlign=middle;whiteSpace=wrap;rounded=0;" parent="1" vertex="1">
          <mxGeometry x="185" y="1465" width="60" height="30" as="geometry" />
        </mxCell>
        <mxCell id="GmiT60eIoy2U2VpT4NWJ-37" value="git push" style="text;html=1;align=center;verticalAlign=middle;whiteSpace=wrap;rounded=0;" parent="1" vertex="1">
          <mxGeometry x="660" y="1465" width="60" height="30" as="geometry" />
        </mxCell>
        <mxCell id="GmiT60eIoy2U2VpT4NWJ-38" value="stagging area" style="shape=cylinder3;whiteSpace=wrap;html=1;boundedLbl=1;backgroundOutline=1;size=15;" parent="1" vertex="1">
          <mxGeometry x="425" y="1440" width="60" height="80" as="geometry" />
        </mxCell>
        <mxCell id="GmiT60eIoy2U2VpT4NWJ-39" value="git add" style="text;html=1;align=center;verticalAlign=middle;whiteSpace=wrap;rounded=0;" parent="1" vertex="1">
          <mxGeometry x="350" y="1465" width="60" height="30" as="geometry" />
        </mxCell>
        <mxCell id="GmiT60eIoy2U2VpT4NWJ-40" value="git commit -m &quot;comment&quot;" style="text;html=1;align=center;verticalAlign=middle;whiteSpace=wrap;rounded=0;" parent="1" vertex="1">
          <mxGeometry x="500" y="1465" width="60" height="30" as="geometry" />
        </mxCell>
        <mxCell id="y0relj2nqz0K4mS07LSM-1" value="" style="ellipse;whiteSpace=wrap;html=1;" parent="1" vertex="1">
          <mxGeometry x="530" y="1590" width="140" height="140" as="geometry" />
        </mxCell>
        <mxCell id="x2S9BLMLY5QGhRIbtAJs-8" value="" style="edgeStyle=orthogonalEdgeStyle;rounded=0;orthogonalLoop=1;jettySize=auto;html=1;" edge="1" parent="1" source="x2S9BLMLY5QGhRIbtAJs-1" target="x2S9BLMLY5QGhRIbtAJs-7">
          <mxGeometry relative="1" as="geometry" />
        </mxCell>
        <mxCell id="x2S9BLMLY5QGhRIbtAJs-1" value="EMP1&lt;div&gt;&lt;br&gt;&lt;/div&gt;" style="shape=umlActor;verticalLabelPosition=bottom;verticalAlign=top;html=1;outlineConnect=0;" vertex="1" parent="1">
          <mxGeometry x="130" y="2070" width="30" height="60" as="geometry" />
        </mxCell>
        <mxCell id="x2S9BLMLY5QGhRIbtAJs-14" value="" style="edgeStyle=orthogonalEdgeStyle;rounded=0;orthogonalLoop=1;jettySize=auto;html=1;" edge="1" parent="1" source="x2S9BLMLY5QGhRIbtAJs-2" target="x2S9BLMLY5QGhRIbtAJs-13">
          <mxGeometry relative="1" as="geometry" />
        </mxCell>
        <mxCell id="x2S9BLMLY5QGhRIbtAJs-2" value="EMP2&lt;div&gt;&lt;br&gt;&lt;/div&gt;" style="shape=umlActor;verticalLabelPosition=bottom;verticalAlign=top;html=1;outlineConnect=0;" vertex="1" parent="1">
          <mxGeometry x="245" y="2200" width="30" height="60" as="geometry" />
        </mxCell>
        <mxCell id="x2S9BLMLY5QGhRIbtAJs-15" style="edgeStyle=orthogonalEdgeStyle;rounded=0;orthogonalLoop=1;jettySize=auto;html=1;exitX=0.5;exitY=0.5;exitDx=0;exitDy=0;exitPerimeter=0;" edge="1" parent="1" source="x2S9BLMLY5QGhRIbtAJs-3" target="x2S9BLMLY5QGhRIbtAJs-16">
          <mxGeometry relative="1" as="geometry">
            <mxPoint x="400" y="2230" as="targetPoint" />
          </mxGeometry>
        </mxCell>
        <mxCell id="x2S9BLMLY5QGhRIbtAJs-3" value="EMP3" style="shape=umlActor;verticalLabelPosition=bottom;verticalAlign=top;html=1;outlineConnect=0;" vertex="1" parent="1">
          <mxGeometry x="290" y="2070" width="30" height="60" as="geometry" />
        </mxCell>
        <mxCell id="x2S9BLMLY5QGhRIbtAJs-5" style="edgeStyle=orthogonalEdgeStyle;rounded=0;orthogonalLoop=1;jettySize=auto;html=1;" edge="1" parent="1" source="x2S9BLMLY5QGhRIbtAJs-4">
          <mxGeometry relative="1" as="geometry">
            <mxPoint x="360" y="1940" as="targetPoint" />
          </mxGeometry>
        </mxCell>
        <mxCell id="x2S9BLMLY5QGhRIbtAJs-4" value="TL" style="html=1;verticalLabelPosition=bottom;align=center;labelBackgroundColor=#ffffff;verticalAlign=top;strokeWidth=2;strokeColor=#0080F0;shadow=0;dashed=0;shape=mxgraph.ios7.icons.user;" vertex="1" parent="1">
          <mxGeometry x="205" y="1970" width="30" height="30" as="geometry" />
        </mxCell>
        <mxCell id="x2S9BLMLY5QGhRIbtAJs-6" value="Username" style="whiteSpace=wrap;html=1;" vertex="1" parent="1">
          <mxGeometry x="290" y="1870" width="120" height="60" as="geometry" />
        </mxCell>
        <mxCell id="x2S9BLMLY5QGhRIbtAJs-7" value="Password" style="whiteSpace=wrap;html=1;verticalAlign=top;" vertex="1" parent="1">
          <mxGeometry x="85" y="2210" width="120" height="60" as="geometry" />
        </mxCell>
        <mxCell id="x2S9BLMLY5QGhRIbtAJs-13" value="Forgot password" style="ellipse;whiteSpace=wrap;html=1;verticalAlign=top;" vertex="1" parent="1">
          <mxGeometry x="220" y="2330" width="80" height="80" as="geometry" />
        </mxCell>
        <mxCell id="x2S9BLMLY5QGhRIbtAJs-16" value="Sign up" style="rounded=1;whiteSpace=wrap;html=1;" vertex="1" parent="1">
          <mxGeometry x="360" y="2220" width="120" height="60" as="geometry" />
        </mxCell>
        <mxCell id="x2S9BLMLY5QGhRIbtAJs-17" value="tarunchanges" style="text;html=1;align=center;verticalAlign=middle;resizable=0;points=[];autosize=1;strokeColor=none;fillColor=none;" vertex="1" parent="1">
          <mxGeometry x="400" y="1948" width="100" height="30" as="geometry" />
        </mxCell>
        <mxCell id="x2S9BLMLY5QGhRIbtAJs-18" value="eshwarchanges" style="text;html=1;align=center;verticalAlign=middle;whiteSpace=wrap;rounded=0;" vertex="1" parent="1">
          <mxGeometry x="40" y="2300" width="60" height="30" as="geometry" />
        </mxCell>
        <mxCell id="x2S9BLMLY5QGhRIbtAJs-19" value="kiranchangs" style="text;html=1;align=center;verticalAlign=middle;whiteSpace=wrap;rounded=0;" vertex="1" parent="1">
          <mxGeometry x="235" y="2430" width="60" height="30" as="geometry" />
        </mxCell>
        <mxCell id="x2S9BLMLY5QGhRIbtAJs-20" value="ravichanges" style="text;html=1;align=center;verticalAlign=middle;whiteSpace=wrap;rounded=0;" vertex="1" parent="1">
          <mxGeometry x="400" y="2330" width="60" height="30" as="geometry" />
        </mxCell>
        <mxCell id="x2S9BLMLY5QGhRIbtAJs-21" value="" style="sketch=0;pointerEvents=1;shadow=0;dashed=0;html=1;strokeColor=none;labelPosition=center;verticalLabelPosition=bottom;verticalAlign=top;align=center;fillColor=#505050;shape=mxgraph.mscae.intune.license_installation" vertex="1" parent="1">
          <mxGeometry x="590" y="1840" width="230" height="193" as="geometry" />
        </mxCell>
        <mxCell id="x2S9BLMLY5QGhRIbtAJs-23" style="edgeStyle=orthogonalEdgeStyle;rounded=0;orthogonalLoop=1;jettySize=auto;html=1;" edge="1" parent="1" source="x2S9BLMLY5QGhRIbtAJs-22" target="x2S9BLMLY5QGhRIbtAJs-24">
          <mxGeometry relative="1" as="geometry">
            <mxPoint x="370" y="2590" as="targetPoint" />
          </mxGeometry>
        </mxCell>
        <mxCell id="x2S9BLMLY5QGhRIbtAJs-22" value="preprod" style="shape=cylinder3;whiteSpace=wrap;html=1;boundedLbl=1;backgroundOutline=1;size=15;" vertex="1" parent="1">
          <mxGeometry x="170" y="2520" width="60" height="80" as="geometry" />
        </mxCell>
        <mxCell id="x2S9BLMLY5QGhRIbtAJs-24" value="&lt;h1 style=&quot;margin-top: 0px;&quot;&gt;Username&lt;br&gt;Password&lt;br&gt;sign up&lt;/h1&gt;" style="text;html=1;whiteSpace=wrap;overflow=hidden;rounded=0;" vertex="1" parent="1">
          <mxGeometry x="375" y="2530" width="180" height="120" as="geometry" />
        </mxCell>
        <mxCell id="x2S9BLMLY5QGhRIbtAJs-25" value="main/prod" style="shape=cylinder3;whiteSpace=wrap;html=1;boundedLbl=1;backgroundOutline=1;size=15;" vertex="1" parent="1">
          <mxGeometry x="170" y="2770" width="60" height="80" as="geometry" />
        </mxCell>
        <mxCell id="x2S9BLMLY5QGhRIbtAJs-26" value="Feature Brnnches" style="text;html=1;align=center;verticalAlign=middle;whiteSpace=wrap;rounded=0;" vertex="1" parent="1">
          <mxGeometry x="660" y="2210" width="60" height="30" as="geometry" />
        </mxCell>
        <mxCell id="x2S9BLMLY5QGhRIbtAJs-29" value="" style="edgeStyle=orthogonalEdgeStyle;rounded=0;orthogonalLoop=1;jettySize=auto;html=1;" edge="1" parent="1" source="x2S9BLMLY5QGhRIbtAJs-27" target="x2S9BLMLY5QGhRIbtAJs-28">
          <mxGeometry relative="1" as="geometry" />
        </mxCell>
        <mxCell id="x2S9BLMLY5QGhRIbtAJs-27" value="DEV" style="ellipse;whiteSpace=wrap;html=1;" vertex="1" parent="1">
          <mxGeometry x="595" y="2340" width="120" height="80" as="geometry" />
        </mxCell>
        <mxCell id="x2S9BLMLY5QGhRIbtAJs-28" value="QA" style="rhombus;whiteSpace=wrap;html=1;" vertex="1" parent="1">
          <mxGeometry x="615" y="2500" width="80" height="80" as="geometry" />
        </mxCell>
      </root>
    </mxGraphModel>
  </diagram>
</mxfile>
